<mxfile host="app.diagrams.net" modified="2023-05-20T23:18:14.662Z" agent="Mozilla/5.0 (Windows NT 10.0; Win64; x64) AppleWebKit/537.36 (KHTML, like Gecko) Chrome/113.0.0.0 Safari/537.36" version="21.3.2" etag="8E9n0kESTwlxrqQEMJhy" type="github">
  <diagram name="Page-1" id="2ckxLBR6-5pkAGTXuphX">
    <mxGraphModel>
      <root>
        <mxCell id="0" />
        <mxCell id="1" parent="0" />
      </root>
    </mxGraphModel>
  </diagram>
</mxfile>
